<?xml version="1.0" encoding="utf-8"?>
<svg width="129" height="29" viewBox="0 0 129 29" fill="none" xmlns="http://www.w3.org/2000/svg" xmlns:bx="https://boxy-svg.com">
  <defs>
    <bx:guide x="71.921" y="23.023" angle="90"/>
    <bx:guide x="85.83266343455918" y="33.90763054702416" angle="90"/>
    <bx:guide x="99.75030291446686" y="31.218459528872508" angle="90"/>
  </defs>
  <path d="M 89.08 23 L 86.512 23 L 77.248 11.624 L 77.248 23 L 74.152 23 L 74.152 6.2 L 76.72 6.2 L 85.984 17.576 L 85.984 6.2 L 89.08 6.2 L 89.08 23 Z" fill="#FF6452"/>
  <path fill-rule="evenodd" clip-rule="evenodd" d="M 40.706 19.242 C 28.231 15.771 17.167 12.935 16.12 12.941 C 13.107 12.957 10.288 15.346 9.864 18.241 C 9.665 19.603 9.7 21.578 9.942 22.629 L 10.383 24.54 L 8.768 22.515 C 6.266 19.376 3.871 14.439 3.387 11.421 C 2.437 5.495 7.182 1.587 13.561 3.043 C 16.09 3.62 64.051 24.49 64.918 25.391 C 65.579 26.078 62.041 25.18 40.706 19.242 Z" fill="#FF6452" style="transform-origin: 34.128px 14.162px;"/>
  <path d="M 26.421 48.99 L 23.115 48.99 L 14.589 38.52 L 14.589 48.99 L 10.493 48.99 L 10.493 31.19 L 13.799 31.19 L 22.325 41.66 L 22.325 31.19 L 26.421 31.19 Z M 23.325 32.19 L 23.325 44.472 L 13.323 32.19 L 11.493 32.19 L 11.493 47.99 L 13.589 47.99 L 13.589 35.708 L 23.591 47.99 L 25.421 47.99 L 25.421 32.19 Z M 33.635 35.174 L 33.635 48.99 L 29.635 48.99 L 29.635 35.174 Z M 30.635 47.99 L 32.635 47.99 L 32.635 36.174 L 30.635 36.174 Z M 31.647 34.062 C 31.017 34.062 30.384 33.805 29.933 33.419 C 29.508 32.985 29.227 32.372 29.227 31.762 C 29.227 31.15 29.511 30.545 29.938 30.124 C 30.389 29.722 31.013 29.462 31.647 29.462 C 32.277 29.462 32.897 29.709 33.347 30.092 C 33.777 30.498 34.067 31.091 34.067 31.69 C 34.067 32.313 33.805 32.951 33.369 33.388 C 32.945 33.811 32.297 34.062 31.647 34.062 Z M 32.661 32.68 C 32.961 32.381 33.067 32.123 33.067 31.69 C 33.067 31.297 32.991 31.077 32.687 30.843 C 32.401 30.557 32.105 30.462 31.647 30.462 C 31.193 30.462 30.91 30.552 30.625 30.851 C 30.317 31.102 30.227 31.35 30.227 31.762 C 30.227 32.176 30.313 32.425 30.62 32.693 C 30.905 32.976 31.189 33.062 31.647 33.062 C 32.117 33.062 32.381 32.961 32.661 32.68 Z M 42.255 43.729 L 40.572 45.321 L 40.572 48.99 L 36.572 48.99 L 36.572 30.182 L 40.572 30.182 L 40.572 40.289 L 46.092 35.174 L 51.091 35.174 L 45.203 41.089 L 51.422 48.99 L 46.505 48.99 Z M 42.353 42.259 L 46.983 47.99 L 49.362 47.99 L 43.869 41.011 L 48.685 36.174 L 46.484 36.174 L 39.572 42.579 L 39.572 31.182 L 37.572 31.182 L 37.572 47.99 L 39.572 47.99 L 39.572 44.891 Z M 64.339 42.154 C 64.339 42.375 64.322 42.692 64.289 43.084 L 64.251 43.542 L 54.374 43.542 C 54.568 44.1 54.732 44.408 55.403 44.898 C 56.077 45.401 56.853 45.614 57.887 45.614 C 59.202 45.614 60.184 45.243 61.01 44.372 L 61.383 43.979 L 63.635 46.566 L 63.358 46.891 C 62.736 47.622 61.912 48.22 60.977 48.594 C 60.049 48.965 58.963 49.158 57.815 49.158 C 56.352 49.158 54.992 48.851 53.863 48.261 C 52.733 47.67 51.801 46.785 51.165 45.738 C 50.564 44.667 50.235 43.407 50.235 42.082 C 50.235 40.773 50.556 39.528 51.141 38.474 C 51.758 37.412 52.641 36.526 53.708 35.933 C 54.774 35.341 56.035 35.03 57.359 35.03 C 58.668 35.03 59.903 35.35 60.942 35.935 C 61.992 36.523 62.85 37.392 63.436 38.455 C 64.021 39.511 64.339 40.783 64.339 42.154 Z M 62.564 38.944 C 62.062 37.993 61.389 37.309 60.455 36.808 C 59.542 36.274 58.546 36.03 57.359 36.03 C 56.155 36.03 55.145 36.279 54.194 36.807 C 53.245 37.334 52.545 38.015 52.01 38.969 C 51.475 39.898 51.235 40.895 51.235 42.082 C 51.235 43.285 51.482 44.294 52.031 45.239 C 52.579 46.174 53.313 46.846 54.327 47.375 C 55.342 47.905 56.462 48.158 57.815 48.158 C 58.875 48.158 59.773 47.999 60.605 47.666 C 61.43 47.336 61.839 47.045 62.308 46.566 L 61.322 45.431 C 60.379 46.192 59.388 46.614 57.887 46.614 C 56.713 46.614 55.638 46.284 54.81 45.703 C 54.012 45.074 53.451 44.161 53.243 43.134 L 53.124 42.542 L 63.326 42.542 C 63.335 42.387 63.339 42.349 63.339 42.154 C 63.339 40.901 63.098 39.872 62.564 38.944 Z M 60.137 38.418 C 60.861 39.054 61.324 39.972 61.478 40.982 L 61.565 41.55 L 53.121 41.55 L 53.217 40.975 C 53.387 39.951 53.872 39.047 54.586 38.414 C 55.337 37.792 56.316 37.43 57.359 37.43 C 58.418 37.43 59.411 37.781 60.137 38.418 Z M 57.359 38.43 C 56.482 38.43 55.829 38.644 55.236 39.174 C 54.639 39.661 54.489 39.981 54.324 40.55 L 60.377 40.55 C 60.221 39.99 60.065 39.686 59.477 39.17 C 58.891 38.655 58.252 38.43 57.359 38.43 Z" style=""/>
  <g transform="matrix(1, 0, 0, 1, 32.0952, -25.4904)">
    <g transform="matrix(1, 0, 0, 1, -27.692596, 25.730904)">
      <path d="M 100.066 16.269 C 100.066 16.477 100.05 16.773 100.018 17.157 L 89.962 17.157 C 90.138 18.101 90.594 18.853 91.33 19.413 C 92.082 19.957 93.01 20.229 94.114 20.229 C 95.522 20.229 96.682 19.765 97.594 18.837 L 99.202 20.685 C 98.626 21.373 97.898 21.893 97.018 22.245 C 96.138 22.597 95.146 22.773 94.042 22.773 C 92.634 22.773 91.394 22.493 90.322 21.933 C 89.25 21.373 88.418 20.597 87.826 19.605 C 87.25 18.597 86.962 17.461 86.962 16.197 C 86.962 14.949 87.242 13.829 87.802 12.837 C 88.378 11.829 89.17 11.045 90.178 10.485 C 91.186 9.925 92.322 9.645 93.586 9.645 C 94.834 9.645 95.946 9.925 96.922 10.485 C 97.914 11.029 98.682 11.805 99.226 12.813 C 99.786 13.805 100.066 14.957 100.066 16.269 Z M 93.586 12.045 C 92.626 12.045 91.81 12.333 91.138 12.909 C 90.482 13.469 90.082 14.221 89.938 15.165 L 97.21 15.165 C 97.082 14.237 96.69 13.485 96.034 12.909 C 95.378 12.333 94.562 12.045 93.586 12.045 Z" fill="#FF6452" style=""/>
      <path d="M 107.727 17.274 L 105.495 19.386 L 105.495 22.77 L 102.495 22.77 L 102.495 4.962 L 105.495 4.962 L 105.495 15.714 L 111.711 9.954 L 115.311 9.954 L 109.959 15.33 L 115.815 22.77 L 112.167 22.77 L 107.727 17.274 Z" fill="#FF6452"/>
    </g>
    <path d="M 90.494 35.707 L 93.494 35.707 L 93.494 48.523 L 90.494 48.523 L 90.494 35.707 Z M 92.006 33.595 C 91.462 33.595 91.006 33.427 90.638 33.091 C 90.27 32.739 90.086 32.307 90.086 31.795 C 90.086 31.283 90.27 30.859 90.638 30.523 C 91.006 30.171 91.462 29.995 92.006 29.995 C 92.55 29.995 93.006 30.163 93.374 30.499 C 93.742 30.819 93.926 31.227 93.926 31.723 C 93.926 32.251 93.742 32.699 93.374 33.067 C 93.022 33.419 92.566 33.595 92.006 33.595 Z" fill="#FF6452"/>
  </g>
</svg>